<svg width="17" height="17" viewBox="0 0 17 17" fill="none" xmlns="http://www.w3.org/2000/svg">
<path d="M8.68138 5.83928C7.23534 5.83928 6.05526 7.04558 6.05526 8.52376C6.05526 10.0019 7.23534 11.2082 8.68138 11.2082C10.1274 11.2082 11.3075 10.0019 11.3075 8.52376C11.3075 7.04558 10.1274 5.83928 8.68138 5.83928ZM16.5578 8.52376C16.5578 7.4121 16.5676 6.31052 16.5065 5.20088C16.4455 3.91201 16.1578 2.76814 15.2358 1.82565C14.3119 0.881154 13.1948 0.589144 11.934 0.526714C10.8465 0.464285 9.76886 0.474354 8.68335 0.474354C7.59586 0.474354 6.51823 0.464285 5.43272 0.526714C4.17186 0.589144 3.05286 0.883167 2.13086 1.82565C1.20689 2.77015 0.92123 3.91201 0.860158 5.20088C0.799085 6.31254 0.808936 7.41412 0.808936 8.52376C0.808936 9.63339 0.799085 10.737 0.860158 11.8466C0.92123 13.1355 1.20886 14.2794 2.13086 15.2219C3.05483 16.1664 4.17186 16.4584 5.43272 16.5208C6.5202 16.5832 7.59783 16.5732 8.68335 16.5732C9.77083 16.5732 10.8485 16.5832 11.934 16.5208C13.1948 16.4584 14.3138 16.1643 15.2358 15.2219C16.1598 14.2774 16.4455 13.1355 16.5065 11.8466C16.5696 10.737 16.5578 9.63541 16.5578 8.52376ZM8.68138 12.6542C6.44534 12.6542 4.64074 10.8095 4.64074 8.52376C4.64074 6.23802 6.44534 4.39333 8.68138 4.39333C10.9174 4.39333 12.722 6.23802 12.722 8.52376C12.722 10.8095 10.9174 12.6542 8.68138 12.6542ZM12.8875 5.1888C12.3654 5.1888 11.9438 4.75784 11.9438 4.22416C11.9438 3.69049 12.3654 3.25952 12.8875 3.25952C13.4096 3.25952 13.8312 3.69049 13.8312 4.22416C13.8313 4.35089 13.807 4.47639 13.7597 4.5935C13.7123 4.71061 13.6428 4.81701 13.5551 4.90662C13.4675 4.99623 13.3634 5.06728 13.2488 5.1157C13.1343 5.16412 13.0115 5.18896 12.8875 5.1888Z" fill="white" fill-opacity="0.8"/>
</svg>
