<svg width="18" height="15" viewBox="0 0 18 15" fill="none" xmlns="http://www.w3.org/2000/svg">
<path d="M17.2133 1.95664C16.6037 2.22549 15.9402 2.41898 15.2568 2.49433C15.9663 2.06344 16.4976 1.3827 16.7511 0.579836C16.0853 0.98471 15.3559 1.26861 14.5953 1.41896C14.2774 1.07155 13.8929 0.794789 13.4658 0.605921C13.0387 0.417053 12.5781 0.320125 12.1127 0.321175C10.2299 0.321175 8.71566 1.88129 8.71566 3.79578C8.71566 4.06463 8.74754 4.33347 8.79935 4.59213C5.98007 4.44142 3.46563 3.06461 1.79399 0.956625C1.4894 1.48844 1.32978 2.09397 1.33175 2.71022C1.33175 3.91595 1.93147 4.9791 2.84599 5.60437C2.30705 5.58267 1.78073 5.43125 1.30983 5.16241V5.20518C1.30983 6.8936 2.47739 8.29281 4.03347 8.61461C3.7413 8.69219 3.44074 8.73188 3.13887 8.73274C2.91772 8.73274 2.70851 8.71034 2.49731 8.67979C2.92768 10.0566 4.18091 11.0566 5.67324 11.0892C4.50568 12.024 3.04324 12.574 1.45528 12.574C1.17036 12.574 0.907361 12.5638 0.634399 12.5312C2.14067 13.519 3.92787 14.0893 5.85255 14.0893C12.1008 14.0893 15.5198 8.79791 15.5198 4.20516C15.5198 4.05444 15.5198 3.90373 15.5098 3.75301C16.1713 3.25809 16.7511 2.64505 17.2133 1.95664Z" fill="white" fill-opacity="0.8"/>
</svg>
