<svg width="201" height="35" viewBox="0 0 201 35" fill="none" xmlns="http://www.w3.org/2000/svg">
<path d="M0.94 34.65C0.683334 34.65 0.473333 34.5683 0.31 34.405C0.146667 34.2417 0.0650001 34.0317 0.0650001 33.775V10.675C0.0650001 10.4183 0.146667 10.2083 0.31 10.045C0.473333 9.88167 0.683334 9.8 0.94 9.8H4.895C5.12833 9.8 5.32667 9.88167 5.49 10.045C5.67667 10.2083 5.77 10.4183 5.77 10.675V11.97C6.30667 11.2467 7.01833 10.6517 7.905 10.185C8.79167 9.695 9.88833 9.45 11.195 9.45C12.3617 9.45 13.3883 9.63667 14.275 10.01C15.1617 10.36 15.92 10.885 16.55 11.585C17.18 12.285 17.67 13.1367 18.02 14.14C18.3933 15.1433 18.6033 16.2983 18.65 17.605C18.6733 18.0717 18.685 18.5033 18.685 18.9C18.685 19.2967 18.6733 19.7283 18.65 20.195C18.6033 21.455 18.405 22.5867 18.055 23.59C17.705 24.5933 17.215 25.445 16.585 26.145C15.955 26.845 15.185 27.3933 14.275 27.79C13.3883 28.1633 12.3617 28.35 11.195 28.35C10.0517 28.35 9.04833 28.1517 8.185 27.755C7.345 27.335 6.645 26.7517 6.085 26.005V33.775C6.085 34.0317 6.00333 34.2417 5.84 34.405C5.67667 34.5683 5.46667 34.65 5.21 34.65H0.94ZM9.305 23.66C10.0983 23.66 10.7167 23.4967 11.16 23.17C11.6033 22.8433 11.9183 22.4 12.105 21.84C12.315 21.28 12.4433 20.6617 12.49 19.985C12.5367 19.2617 12.5367 18.5383 12.49 17.815C12.4433 17.1383 12.315 16.52 12.105 15.96C11.9183 15.4 11.6033 14.9567 11.16 14.63C10.7167 14.3033 10.0983 14.14 9.305 14.14C8.535 14.14 7.91667 14.315 7.45 14.665C6.98333 14.9917 6.645 15.4233 6.435 15.96C6.225 16.4967 6.10833 17.08 6.085 17.71C6.06167 18.1533 6.05 18.585 6.05 19.005C6.05 19.425 6.06167 19.8683 6.085 20.335C6.10833 20.9183 6.23667 21.4667 6.47 21.98C6.70333 22.47 7.05333 22.8783 7.52 23.205C7.98667 23.5083 8.58167 23.66 9.305 23.66ZM23.0201 28C22.7634 28 22.5534 27.9183 22.3901 27.755C22.2267 27.5917 22.1451 27.3817 22.1451 27.125V10.675C22.1451 10.4417 22.2267 10.2433 22.3901 10.08C22.5534 9.89333 22.7634 9.8 23.0201 9.8H27.0451C27.3017 9.8 27.5117 9.89333 27.6751 10.08C27.8384 10.2433 27.9201 10.4417 27.9201 10.675V12.075C28.5501 11.3517 29.2967 10.7917 30.1601 10.395C31.0467 9.99833 32.0384 9.8 33.1351 9.8H34.6751C34.9084 9.8 35.1067 9.88167 35.2701 10.045C35.4567 10.2083 35.5501 10.4183 35.5501 10.675V14.28C35.5501 14.5133 35.4567 14.7233 35.2701 14.91C35.1067 15.0733 34.9084 15.155 34.6751 15.155H31.2801C30.3234 15.155 29.5767 15.4233 29.0401 15.96C28.5267 16.4733 28.2701 17.2083 28.2701 18.165V27.125C28.2701 27.3817 28.1767 27.5917 27.9901 27.755C27.8267 27.9183 27.6167 28 27.3601 28H23.0201ZM46.5119 28.35C44.5519 28.35 42.8952 28.035 41.5419 27.405C40.2119 26.775 39.1852 25.8767 38.4619 24.71C37.7619 23.52 37.3652 22.1083 37.2719 20.475C37.2486 20.0083 37.2369 19.4833 37.2369 18.9C37.2369 18.2933 37.2486 17.7683 37.2719 17.325C37.3652 15.6683 37.7852 14.2567 38.5319 13.09C39.2786 11.9233 40.3169 11.025 41.6469 10.395C43.0002 9.765 44.6219 9.45 46.5119 9.45C48.4252 9.45 50.0469 9.765 51.3769 10.395C52.7302 11.025 53.7802 11.9233 54.5269 13.09C55.2736 14.2567 55.6936 15.6683 55.7869 17.325C55.8102 17.7683 55.8219 18.2933 55.8219 18.9C55.8219 19.4833 55.8102 20.0083 55.7869 20.475C55.6936 22.1083 55.2852 23.52 54.5619 24.71C53.8619 25.8767 52.8352 26.775 51.4819 27.405C50.1519 28.035 48.4952 28.35 46.5119 28.35ZM46.5119 24.08C47.5619 24.08 48.3202 23.765 48.7869 23.135C49.2769 22.505 49.5569 21.56 49.6269 20.3C49.6502 19.95 49.6619 19.4833 49.6619 18.9C49.6619 18.3167 49.6502 17.85 49.6269 17.5C49.5569 16.2633 49.2769 15.33 48.7869 14.7C48.3202 14.0467 47.5619 13.72 46.5119 13.72C45.4852 13.72 44.7269 14.0467 44.2369 14.7C43.7469 15.33 43.4786 16.2633 43.4319 17.5C43.4086 17.85 43.3969 18.3167 43.3969 18.9C43.3969 19.4833 43.4086 19.95 43.4319 20.3C43.4786 21.56 43.7469 22.505 44.2369 23.135C44.7269 23.765 45.4852 24.08 46.5119 24.08Z" fill="url(#paint0_linear_31_3)"/>
<path d="M72.0732 29.184C71.8266 29.184 71.6169 29.0977 71.4442 28.925C71.2962 28.777 71.2222 28.5797 71.2222 28.333V25.41C67.5716 25.41 64.7719 24.6207 62.8232 23.042C60.8992 21.4387 59.7769 19.0337 59.4562 15.827C59.4562 15.5557 59.4439 15.272 59.4192 14.976C59.4192 14.68 59.4192 14.384 59.4192 14.088C59.4439 13.792 59.4562 13.5083 59.4562 13.237C59.5796 11.091 60.1222 9.315 61.0842 7.909C62.0709 6.47833 63.4276 5.41767 65.1542 4.727C66.8809 4.01167 68.9036 3.654 71.2222 3.654V1.101C71.2222 0.854331 71.2962 0.656998 71.4442 0.508999C71.6169 0.336331 71.8266 0.249998 72.0732 0.249998H73.9972C74.2439 0.249998 74.4412 0.336331 74.5892 0.508999C74.7619 0.656998 74.8482 0.854331 74.8482 1.101V3.654C77.1669 3.654 79.1896 4.01167 80.9162 4.727C82.6429 5.41767 83.9996 6.47833 84.9862 7.909C85.9729 9.315 86.5156 11.091 86.6142 13.237C86.6389 13.7057 86.6512 14.1373 86.6512 14.532C86.6759 14.902 86.6636 15.3337 86.6142 15.827C86.3182 19.0337 85.1959 21.4387 83.2472 23.042C81.3232 24.6207 78.5236 25.41 74.8482 25.41V28.333C74.8482 28.5797 74.7619 28.777 74.5892 28.925C74.4412 29.0977 74.2439 29.184 73.9972 29.184H72.0732ZM71.2222 22.228V6.799C68.8049 6.799 66.9056 7.317 65.5242 8.353C64.1676 9.389 63.3782 11.0787 63.1562 13.422C63.1316 13.8167 63.1192 14.1867 63.1192 14.532C63.1192 14.8527 63.1316 15.2227 63.1562 15.642C63.2796 17.9607 64.0442 19.638 65.4502 20.674C66.8562 21.71 68.7802 22.228 71.2222 22.228ZM74.8482 22.228C77.2902 22.228 79.2142 21.71 80.6202 20.674C82.0262 19.638 82.7909 17.9607 82.9142 15.642C82.9389 15.3953 82.9512 15.1487 82.9512 14.902C82.9512 14.6553 82.9512 14.4087 82.9512 14.162C82.9512 13.8907 82.9389 13.644 82.9142 13.422C82.6676 11.0787 81.8659 9.389 80.5092 8.353C79.1526 7.317 77.2656 6.799 74.8482 6.799V22.228ZM92.4397 28C92.2177 28 92.0204 27.926 91.8477 27.778C91.6997 27.6053 91.6257 27.4203 91.6257 27.223V9.611C91.6257 9.36433 91.6997 9.167 91.8477 9.019C92.0204 8.84633 92.23 8.76 92.4767 8.76H94.2527C94.4994 8.76 94.6967 8.84633 94.8447 9.019C94.9927 9.167 95.0667 9.36433 95.0667 9.611V25.299L94.1047 24.3L105.316 9.315C105.439 9.167 105.575 9.04367 105.723 8.945C105.871 8.82167 106.056 8.76 106.278 8.76H107.98C108.177 8.76 108.35 8.834 108.498 8.982C108.67 9.13 108.757 9.30267 108.757 9.5V27.149C108.757 27.3957 108.67 27.6053 108.498 27.778C108.35 27.926 108.152 28 107.906 28H106.167C105.895 28 105.686 27.926 105.538 27.778C105.39 27.6053 105.316 27.3957 105.316 27.149V12.386L106.352 12.349L95.0667 27.445C94.968 27.5683 94.8447 27.6917 94.6967 27.815C94.5487 27.9383 94.3514 28 94.1047 28H92.4397ZM113.248 28C113.001 28 112.791 27.9137 112.619 27.741C112.446 27.5683 112.36 27.3587 112.36 27.112V25.743C112.36 25.225 112.619 24.9537 113.137 24.929C113.901 24.9043 114.543 24.5467 115.061 23.856C115.579 23.1407 115.973 22.0183 116.245 20.489C116.516 18.935 116.652 16.8877 116.652 14.347V9.611C116.652 9.36433 116.726 9.167 116.874 9.019C117.046 8.84633 117.256 8.76 117.503 8.76H129.269C129.515 8.76 129.713 8.84633 129.861 9.019C130.033 9.167 130.12 9.36433 130.12 9.611V27.149C130.12 27.3957 130.033 27.6053 129.861 27.778C129.713 27.926 129.515 28 129.269 28H127.493C127.246 28 127.049 27.926 126.901 27.778C126.753 27.6053 126.679 27.3957 126.679 27.149V11.72H120.019V14.754C120.019 17.122 119.883 19.157 119.612 20.859C119.34 22.5363 118.921 23.9053 118.354 24.966C117.811 26.002 117.108 26.7667 116.245 27.26C115.406 27.7533 114.407 28 113.248 28ZM136.486 28C136.24 28 136.03 27.926 135.857 27.778C135.709 27.6053 135.635 27.3957 135.635 27.149V9.611C135.635 9.36433 135.709 9.167 135.857 9.019C136.03 8.84633 136.24 8.76 136.486 8.76H138.262C138.509 8.76 138.706 8.84633 138.854 9.019C139.027 9.167 139.113 9.36433 139.113 9.611V15.05H143.257C145.773 15.05 147.611 15.642 148.77 16.826C149.93 18.01 150.509 19.6133 150.509 21.636C150.509 23.8067 149.868 25.41 148.585 26.446C147.303 27.482 145.379 28 142.813 28H136.486ZM139.076 25.225H142.961C144.441 25.225 145.527 24.966 146.217 24.448C146.908 23.9053 147.253 22.968 147.253 21.636C147.253 20.3533 146.92 19.4037 146.254 18.787C145.588 18.1457 144.491 17.825 142.961 17.825H139.076V25.225ZM154.986 28C154.739 28 154.542 27.926 154.394 27.778C154.246 27.63 154.172 27.4327 154.172 27.186V9.463C154.172 9.26567 154.246 9.10533 154.394 8.982C154.566 8.834 154.739 8.76 154.912 8.76H156.799C157.193 8.76 157.502 8.95733 157.724 9.352L164.014 21.118L170.341 9.352C170.563 8.95733 170.871 8.76 171.266 8.76H173.116C173.313 8.76 173.486 8.834 173.634 8.982C173.782 9.10533 173.856 9.26567 173.856 9.463V27.186C173.856 27.4327 173.782 27.63 173.634 27.778C173.486 27.926 173.301 28 173.079 28H171.266C171.019 28 170.822 27.926 170.674 27.778C170.526 27.63 170.452 27.4327 170.452 27.186V12.423L171.747 12.571L165.716 23.967C165.592 24.2137 165.444 24.4357 165.272 24.633C165.099 24.8303 164.84 24.929 164.495 24.929H163.533C163.212 24.929 162.965 24.8303 162.793 24.633C162.62 24.4357 162.46 24.2137 162.312 23.967L156.466 13.126L157.613 13.015V27.186C157.613 27.4327 157.539 27.63 157.391 27.778C157.243 27.926 157.045 28 156.799 28H154.986ZM180.243 28C179.997 28 179.787 27.926 179.614 27.778C179.466 27.6053 179.392 27.3957 179.392 27.149V9.611C179.392 9.36433 179.466 9.167 179.614 9.019C179.787 8.84633 179.997 8.76 180.243 8.76H182.019C182.266 8.76 182.463 8.84633 182.611 9.019C182.784 9.167 182.87 9.36433 182.87 9.611V15.05H186.718C189.234 15.05 191.072 15.642 192.231 16.826C193.391 18.01 193.97 19.6133 193.97 21.636C193.97 23.8067 193.329 25.41 192.046 26.446C190.764 27.482 188.84 28 186.274 28H180.243ZM182.833 25.225H186.385C187.89 25.225 188.988 24.966 189.678 24.448C190.369 23.9053 190.714 22.968 190.714 21.636C190.714 20.3533 190.381 19.4037 189.715 18.787C189.049 18.1457 187.939 17.825 186.385 17.825H182.833V25.225ZM197.448 28C197.202 28 196.992 27.926 196.819 27.778C196.671 27.6053 196.597 27.3957 196.597 27.149V9.611C196.597 9.36433 196.671 9.167 196.819 9.019C196.992 8.84633 197.202 8.76 197.448 8.76H199.224C199.471 8.76 199.668 8.84633 199.816 9.019C199.989 9.167 200.075 9.36433 200.075 9.611V27.149C200.075 27.3957 199.989 27.6053 199.816 27.778C199.668 27.926 199.471 28 199.224 28H197.448Z" fill="white"/>
<defs>
<linearGradient id="paint0_linear_31_3" x1="5" y1="9" x2="46.5" y2="28" gradientUnits="userSpaceOnUse">
<stop offset="0.173756" stop-color="#2563EB"/>
<stop offset="0.770035" stop-color="#D946EF"/>
</linearGradient>
</defs>
</svg>
