<svg width="122" height="22" viewBox="0 0 122 22" fill="none" xmlns="http://www.w3.org/2000/svg">
<path d="M0.68 21.6267C0.533333 21.6267 0.413333 21.58 0.32 21.4867C0.226667 21.3933 0.18 21.2733 0.18 21.1267V7.92666C0.18 7.77999 0.226667 7.65999 0.32 7.56666C0.413333 7.47333 0.533333 7.42666 0.68 7.42666H2.94C3.07333 7.42666 3.18667 7.47333 3.28 7.56666C3.38667 7.65999 3.44 7.77999 3.44 7.92666V8.66666C3.74667 8.25333 4.15333 7.91333 4.66 7.64666C5.16667 7.36666 5.79333 7.22666 6.54 7.22666C7.20667 7.22666 7.79333 7.33333 8.3 7.54666C8.80667 7.74666 9.24 8.04666 9.6 8.44666C9.96 8.84666 10.24 9.33333 10.44 9.90666C10.6533 10.48 10.7733 11.14 10.8 11.8867C10.8133 12.1533 10.82 12.4 10.82 12.6267C10.82 12.8533 10.8133 13.1 10.8 13.3667C10.7733 14.0867 10.66 14.7333 10.46 15.3067C10.26 15.88 9.98 16.3667 9.62 16.7667C9.26 17.1667 8.82 17.48 8.3 17.7067C7.79333 17.92 7.20667 18.0267 6.54 18.0267C5.88667 18.0267 5.31333 17.9133 4.82 17.6867C4.34 17.4467 3.94 17.1133 3.62 16.6867V21.1267C3.62 21.2733 3.57333 21.3933 3.48 21.4867C3.38667 21.58 3.26667 21.6267 3.12 21.6267H0.68ZM5.46 15.3467C5.91333 15.3467 6.26667 15.2533 6.52 15.0667C6.77333 14.88 6.95333 14.6267 7.06 14.3067C7.18 13.9867 7.25333 13.6333 7.28 13.2467C7.30667 12.8333 7.30667 12.42 7.28 12.0067C7.25333 11.62 7.18 11.2667 7.06 10.9467C6.95333 10.6267 6.77333 10.3733 6.52 10.1867C6.26667 9.99999 5.91333 9.90666 5.46 9.90666C5.02 9.90666 4.66667 10.0067 4.4 10.2067C4.13333 10.3933 3.94 10.64 3.82 10.9467C3.7 11.2533 3.63333 11.5867 3.62 11.9467C3.60667 12.2 3.6 12.4467 3.6 12.6867C3.6 12.9267 3.60667 13.18 3.62 13.4467C3.63333 13.78 3.70667 14.0933 3.84 14.3867C3.97333 14.6667 4.17333 14.9 4.44 15.0867C4.70667 15.26 5.04667 15.3467 5.46 15.3467ZM13.2972 17.8267C13.1505 17.8267 13.0305 17.78 12.9372 17.6867C12.8439 17.5933 12.7972 17.4733 12.7972 17.3267V7.92666C12.7972 7.79333 12.8439 7.67999 12.9372 7.58666C13.0305 7.47999 13.1505 7.42666 13.2972 7.42666H15.5972C15.7439 7.42666 15.8639 7.47999 15.9572 7.58666C16.0505 7.67999 16.0972 7.79333 16.0972 7.92666V8.72666C16.4572 8.31333 16.8839 7.99333 17.3772 7.76666C17.8839 7.53999 18.4505 7.42666 19.0772 7.42666H19.9572C20.0905 7.42666 20.2039 7.47333 20.2972 7.56666C20.4039 7.65999 20.4572 7.77999 20.4572 7.92666V9.98666C20.4572 10.12 20.4039 10.24 20.2972 10.3467C20.2039 10.44 20.0905 10.4867 19.9572 10.4867H18.0172C17.4705 10.4867 17.0439 10.64 16.7372 10.9467C16.4439 11.24 16.2972 11.66 16.2972 12.2067V17.3267C16.2972 17.4733 16.2439 17.5933 16.1372 17.6867C16.0439 17.78 15.9239 17.8267 15.7772 17.8267H13.2972ZM26.7211 18.0267C25.6011 18.0267 24.6544 17.8467 23.8811 17.4867C23.1211 17.1267 22.5344 16.6133 22.1211 15.9467C21.7211 15.2667 21.4944 14.46 21.4411 13.5267C21.4278 13.26 21.4211 12.96 21.4211 12.6267C21.4211 12.28 21.4278 11.98 21.4411 11.7267C21.4944 10.78 21.7344 9.97333 22.1611 9.30666C22.5878 8.63999 23.1811 8.12666 23.9411 7.76666C24.7144 7.40666 25.6411 7.22666 26.7211 7.22666C27.8144 7.22666 28.7411 7.40666 29.5011 7.76666C30.2744 8.12666 30.8744 8.63999 31.3011 9.30666C31.7278 9.97333 31.9678 10.78 32.0211 11.7267C32.0344 11.98 32.0411 12.28 32.0411 12.6267C32.0411 12.96 32.0344 13.26 32.0211 13.5267C31.9678 14.46 31.7344 15.2667 31.3211 15.9467C30.9211 16.6133 30.3344 17.1267 29.5611 17.4867C28.8011 17.8467 27.8544 18.0267 26.7211 18.0267ZM26.7211 15.5867C27.3211 15.5867 27.7544 15.4067 28.0211 15.0467C28.3011 14.6867 28.4611 14.1467 28.5011 13.4267C28.5144 13.2267 28.5211 12.96 28.5211 12.6267C28.5211 12.2933 28.5144 12.0267 28.5011 11.8267C28.4611 11.12 28.3011 10.5867 28.0211 10.2267C27.7544 9.85333 27.3211 9.66666 26.7211 9.66666C26.1344 9.66666 25.7011 9.85333 25.4211 10.2267C25.1411 10.5867 24.9878 11.12 24.9611 11.8267C24.9478 12.0267 24.9411 12.2933 24.9411 12.6267C24.9411 12.96 24.9478 13.2267 24.9611 13.4267C24.9878 14.1467 25.1411 14.6867 25.4211 15.0467C25.7011 15.4067 26.1344 15.5867 26.7211 15.5867Z" fill="url(#paint0_linear_32_689)"/>
<path d="M42.0741 18.5627C41.9208 18.5627 41.7905 18.509 41.6831 18.4017C41.5911 18.3097 41.5451 18.187 41.5451 18.0337V16.2167C39.2758 16.2167 37.5355 15.726 36.3241 14.7447C35.1281 13.748 34.4305 12.253 34.2311 10.2597C34.2311 10.091 34.2235 9.91466 34.2081 9.73066C34.2081 9.54666 34.2081 9.36266 34.2081 9.17866C34.2235 8.99466 34.2311 8.81833 34.2311 8.64966C34.3078 7.31566 34.6451 6.21166 35.2431 5.33766C35.8565 4.44833 36.6998 3.78899 37.7731 3.35966C38.8465 2.91499 40.1038 2.69266 41.5451 2.69266V1.10566C41.5451 0.952326 41.5911 0.829659 41.6831 0.737659C41.7905 0.630326 41.9208 0.576659 42.0741 0.576659H43.2701C43.4235 0.576659 43.5461 0.630326 43.6381 0.737659C43.7455 0.829659 43.7991 0.952326 43.7991 1.10566V2.69266C45.2405 2.69266 46.4978 2.91499 47.5711 3.35966C48.6445 3.78899 49.4878 4.44833 50.1011 5.33766C50.7145 6.21166 51.0518 7.31566 51.1131 8.64966C51.1285 8.94099 51.1361 9.20933 51.1361 9.45466C51.1515 9.68466 51.1438 9.95299 51.1131 10.2597C50.9291 12.253 50.2315 13.748 49.0201 14.7447C47.8241 15.726 46.0838 16.2167 43.7991 16.2167V18.0337C43.7991 18.187 43.7455 18.3097 43.6381 18.4017C43.5461 18.509 43.4235 18.5627 43.2701 18.5627H42.0741ZM41.5451 14.2387V4.64766C40.0425 4.64766 38.8618 4.96966 38.0031 5.61366C37.1598 6.25766 36.6691 7.30799 36.5311 8.76466C36.5158 9.00999 36.5081 9.23999 36.5081 9.45466C36.5081 9.65399 36.5158 9.88399 36.5311 10.1447C36.6078 11.586 37.0831 12.6287 37.9571 13.2727C38.8311 13.9167 40.0271 14.2387 41.5451 14.2387ZM43.7991 14.2387C45.3171 14.2387 46.5131 13.9167 47.3871 13.2727C48.2611 12.6287 48.7365 11.586 48.8131 10.1447C48.8285 9.99133 48.8361 9.83799 48.8361 9.68466C48.8361 9.53133 48.8361 9.37799 48.8361 9.22466C48.8361 9.05599 48.8285 8.90266 48.8131 8.76466C48.6598 7.30799 48.1615 6.25766 47.3181 5.61366C46.4748 4.96966 45.3018 4.64766 43.7991 4.64766V14.2387ZM54.7344 17.8267C54.5964 17.8267 54.4737 17.7807 54.3664 17.6887C54.2744 17.5813 54.2284 17.4663 54.2284 17.3437V6.39566C54.2284 6.24233 54.2744 6.11966 54.3664 6.02766C54.4737 5.92033 54.604 5.86666 54.7574 5.86666H55.8614C56.0147 5.86666 56.1374 5.92033 56.2294 6.02766C56.3214 6.11966 56.3674 6.24233 56.3674 6.39566V16.1477L55.7694 15.5267L62.7384 6.21166C62.815 6.11966 62.8994 6.04299 62.9914 5.98166C63.0834 5.90499 63.1984 5.86666 63.3364 5.86666H64.3944C64.517 5.86666 64.6244 5.91266 64.7164 6.00466C64.8237 6.09666 64.8774 6.20399 64.8774 6.32666V17.2977C64.8774 17.451 64.8237 17.5813 64.7164 17.6887C64.6244 17.7807 64.5017 17.8267 64.3484 17.8267H63.2674C63.0987 17.8267 62.9684 17.7807 62.8764 17.6887C62.7844 17.5813 62.7384 17.451 62.7384 17.2977V8.12066L63.3824 8.09766L56.3674 17.4817C56.306 17.5583 56.2294 17.635 56.1374 17.7117C56.0454 17.7883 55.9227 17.8267 55.7694 17.8267H54.7344ZM67.669 17.8267C67.5157 17.8267 67.3853 17.773 67.278 17.6657C67.1707 17.5583 67.117 17.428 67.117 17.2747V16.4237C67.117 16.1017 67.278 15.933 67.6 15.9177C68.0753 15.9023 68.474 15.68 68.796 15.2507C69.118 14.806 69.3633 14.1083 69.532 13.1577C69.7007 12.1917 69.785 10.919 69.785 9.33966V6.39566C69.785 6.24233 69.831 6.11966 69.923 6.02766C70.0303 5.92033 70.1607 5.86666 70.314 5.86666H77.628C77.7813 5.86666 77.904 5.92033 77.996 6.02766C78.1033 6.11966 78.157 6.24233 78.157 6.39566V17.2977C78.157 17.451 78.1033 17.5813 77.996 17.6887C77.904 17.7807 77.7813 17.8267 77.628 17.8267H76.524C76.3707 17.8267 76.248 17.7807 76.156 17.6887C76.064 17.5813 76.018 17.451 76.018 17.2977V7.70666H71.878V9.59266C71.878 11.0647 71.7937 12.3297 71.625 13.3877C71.4563 14.4303 71.1957 15.2813 70.843 15.9407C70.5057 16.5847 70.0687 17.06 69.532 17.3667C69.0107 17.6733 68.3897 17.8267 67.669 17.8267ZM82.1148 17.8267C81.9615 17.8267 81.8311 17.7807 81.7238 17.6887C81.6318 17.5813 81.5858 17.451 81.5858 17.2977V6.39566C81.5858 6.24233 81.6318 6.11966 81.7238 6.02766C81.8311 5.92033 81.9615 5.86666 82.1148 5.86666H83.2188C83.3721 5.86666 83.4948 5.92033 83.5868 6.02766C83.6941 6.11966 83.7478 6.24233 83.7478 6.39566V9.77666H86.3238C87.8878 9.77666 89.0301 10.1447 89.7508 10.8807C90.4715 11.6167 90.8318 12.6133 90.8318 13.8707C90.8318 15.22 90.4331 16.2167 89.6358 16.8607C88.8385 17.5047 87.6425 17.8267 86.0478 17.8267H82.1148ZM83.7248 16.1017H86.1398C87.0598 16.1017 87.7345 15.9407 88.1638 15.6187C88.5931 15.2813 88.8078 14.6987 88.8078 13.8707C88.8078 13.0733 88.6008 12.483 88.1868 12.0997C87.7728 11.701 87.0905 11.5017 86.1398 11.5017H83.7248V16.1017ZM93.6143 17.8267C93.4609 17.8267 93.3383 17.7807 93.2463 17.6887C93.1543 17.5967 93.1083 17.474 93.1083 17.3207V6.30366C93.1083 6.18099 93.1543 6.08133 93.2463 6.00466C93.3536 5.91266 93.4609 5.86666 93.5683 5.86666H94.7413C94.9866 5.86666 95.1783 5.98933 95.3163 6.23466L99.2263 13.5487L103.159 6.23466C103.297 5.98933 103.489 5.86666 103.734 5.86666H104.884C105.007 5.86666 105.114 5.91266 105.206 6.00466C105.298 6.08133 105.344 6.18099 105.344 6.30366V17.3207C105.344 17.474 105.298 17.5967 105.206 17.6887C105.114 17.7807 104.999 17.8267 104.861 17.8267H103.734C103.581 17.8267 103.458 17.7807 103.366 17.6887C103.274 17.5967 103.228 17.474 103.228 17.3207V8.14366L104.033 8.23566L100.284 15.3197C100.208 15.473 100.116 15.611 100.008 15.7337C99.9009 15.8563 99.7399 15.9177 99.5253 15.9177H98.9273C98.7279 15.9177 98.5746 15.8563 98.4673 15.7337C98.3599 15.611 98.2603 15.473 98.1682 15.3197L94.5343 8.58066L95.2473 8.51166V17.3207C95.2473 17.474 95.2013 17.5967 95.1093 17.6887C95.0173 17.7807 94.8946 17.8267 94.7413 17.8267H93.6143ZM109.315 17.8267C109.162 17.8267 109.031 17.7807 108.924 17.6887C108.832 17.5813 108.786 17.451 108.786 17.2977V6.39566C108.786 6.24233 108.832 6.11966 108.924 6.02766C109.031 5.92033 109.162 5.86666 109.315 5.86666H110.419C110.572 5.86666 110.695 5.92033 110.787 6.02766C110.894 6.11966 110.948 6.24233 110.948 6.39566V9.77666H113.34C114.904 9.77666 116.046 10.1447 116.767 10.8807C117.488 11.6167 117.848 12.6133 117.848 13.8707C117.848 15.22 117.449 16.2167 116.652 16.8607C115.855 17.5047 114.659 17.8267 113.064 17.8267H109.315ZM110.925 16.1017H113.133C114.068 16.1017 114.751 15.9407 115.18 15.6187C115.609 15.2813 115.824 14.6987 115.824 13.8707C115.824 13.0733 115.617 12.483 115.203 12.0997C114.789 11.701 114.099 11.5017 113.133 11.5017H110.925V16.1017ZM120.01 17.8267C119.857 17.8267 119.726 17.7807 119.619 17.6887C119.527 17.5813 119.481 17.451 119.481 17.2977V6.39566C119.481 6.24233 119.527 6.11966 119.619 6.02766C119.726 5.92033 119.857 5.86666 120.01 5.86666H121.114C121.267 5.86666 121.39 5.92033 121.482 6.02766C121.589 6.11966 121.643 6.24233 121.643 6.39566V17.2977C121.643 17.451 121.589 17.5813 121.482 17.6887C121.39 17.7807 121.267 17.8267 121.114 17.8267H120.01Z" fill="url(#paint1_linear_32_689)"/>
<defs>
<linearGradient id="paint0_linear_32_689" x1="3.02655" y1="1.91645" x2="20.1596" y2="16.1003" gradientUnits="userSpaceOnUse">
<stop offset="0.173756" stop-color="#2563EB"/>
<stop offset="0.770035" stop-color="#D946EF"/>
</linearGradient>
<linearGradient id="paint1_linear_32_689" x1="3.02655" y1="1.91645" x2="20.1596" y2="16.1003" gradientUnits="userSpaceOnUse">
<stop offset="0.173756" stop-color="white" stop-opacity="0.9"/>
<stop offset="0.770035" stop-color="white" stop-opacity="0.9"/>
</linearGradient>
</defs>
</svg>
